<mxfile host="app.diagrams.net" agent="Mozilla/5.0 (Windows NT 10.0; Win64; x64) AppleWebKit/537.36 (KHTML, like Gecko) Chrome/138.0.0.0 Safari/537.36 Edg/138.0.0.0" version="28.0.5">
  <diagram name="Page-1" id="J2FCc3FYS4h55al05sB3">
    <mxGraphModel dx="953" dy="550" grid="1" gridSize="10" guides="1" tooltips="1" connect="1" arrows="1" fold="1" page="1" pageScale="1" pageWidth="850" pageHeight="1100" math="0" shadow="0">
      <root>
        <mxCell id="0" />
        <mxCell id="1" parent="0" />
        <mxCell id="vZ8UZOQ8aMG6gmJ8QP59-1" value="" style="whiteSpace=wrap;strokeWidth=2;" vertex="1" parent="1">
          <mxGeometry x="231" y="20" width="379" height="420" as="geometry" />
        </mxCell>
        <mxCell id="vZ8UZOQ8aMG6gmJ8QP59-2" value="Administrador" style="whiteSpace=wrap;strokeWidth=2;fontSize=14;fontStyle=1" vertex="1" parent="1">
          <mxGeometry x="31" y="110" width="161" height="54" as="geometry" />
        </mxCell>
        <mxCell id="vZ8UZOQ8aMG6gmJ8QP59-3" value="Entrenador" style="whiteSpace=wrap;strokeWidth=2;fontSize=14;fontStyle=1" vertex="1" parent="1">
          <mxGeometry x="31" y="353" width="139" height="54" as="geometry" />
        </mxCell>
        <mxCell id="vZ8UZOQ8aMG6gmJ8QP59-4" value="Usuario" style="whiteSpace=wrap;strokeWidth=2;fontSize=14;fontStyle=1" vertex="1" parent="1">
          <mxGeometry x="44" y="220" width="113" height="54" as="geometry" />
        </mxCell>
        <mxCell id="vZ8UZOQ8aMG6gmJ8QP59-5" value="Gestionar Usuarios" style="rounded=1;arcSize=20;strokeWidth=2;fontSize=14;fontStyle=1" vertex="1" parent="1">
          <mxGeometry x="344" y="110" width="164" height="54" as="geometry" />
        </mxCell>
        <mxCell id="vZ8UZOQ8aMG6gmJ8QP59-6" value="Consultar Membresía y Rutinas" style="rounded=1;arcSize=20;strokeWidth=2;fontSize=14;fontStyle=1" vertex="1" parent="1">
          <mxGeometry x="300" y="200" width="230" height="78" as="geometry" />
        </mxCell>
        <mxCell id="vZ8UZOQ8aMG6gmJ8QP59-7" value="Asignar Rutinas" style="rounded=1;arcSize=20;strokeWidth=2;fontSize=14;fontStyle=1" vertex="1" parent="1">
          <mxGeometry x="345" y="332" width="139" height="54" as="geometry" />
        </mxCell>
        <mxCell id="vZ8UZOQ8aMG6gmJ8QP59-8" value="" style="startArrow=none;endArrow=none;exitX=1;exitY=0.5;entryX=0;entryY=0.5;rounded=0;edgeStyle=orthogonalEdgeStyle;" edge="1" parent="1" source="vZ8UZOQ8aMG6gmJ8QP59-2" target="vZ8UZOQ8aMG6gmJ8QP59-5">
          <mxGeometry relative="1" as="geometry" />
        </mxCell>
        <mxCell id="vZ8UZOQ8aMG6gmJ8QP59-9" value="" style="startArrow=none;endArrow=none;exitX=1;exitY=0.4;entryX=0;entryY=0.5;rounded=0;" edge="1" parent="1" source="vZ8UZOQ8aMG6gmJ8QP59-4" target="vZ8UZOQ8aMG6gmJ8QP59-6">
          <mxGeometry relative="1" as="geometry" />
        </mxCell>
        <mxCell id="vZ8UZOQ8aMG6gmJ8QP59-10" value="" style="startArrow=none;endArrow=none;entryX=0;entryY=0.25;rounded=0;edgeStyle=orthogonalEdgeStyle;entryDx=0;entryDy=0;exitX=1.006;exitY=0.998;exitDx=0;exitDy=0;exitPerimeter=0;" edge="1" parent="1" source="vZ8UZOQ8aMG6gmJ8QP59-4" target="vZ8UZOQ8aMG6gmJ8QP59-7">
          <mxGeometry relative="1" as="geometry">
            <Array as="points">
              <mxPoint x="190" y="274" />
              <mxPoint x="190" y="346" />
            </Array>
            <mxPoint x="160" y="274" as="sourcePoint" />
          </mxGeometry>
        </mxCell>
        <mxCell id="vZ8UZOQ8aMG6gmJ8QP59-11" value="" style="startArrow=none;endArrow=none;exitX=1;exitY=0.5;entryX=0;entryY=0.69;rounded=0;edgeStyle=orthogonalEdgeStyle;" edge="1" parent="1" source="vZ8UZOQ8aMG6gmJ8QP59-3" target="vZ8UZOQ8aMG6gmJ8QP59-7">
          <mxGeometry relative="1" as="geometry" />
        </mxCell>
        <mxCell id="vZ8UZOQ8aMG6gmJ8QP59-12" value="&lt;div style=&quot;text-align: center;&quot;&gt;&lt;span style=&quot;background-color: transparent; font-size: 14px;&quot;&gt;&lt;b&gt;Sistema de Gestión de Gimnasio&lt;/b&gt;&lt;/span&gt;&lt;/div&gt;" style="text;whiteSpace=wrap;html=1;" vertex="1" parent="1">
          <mxGeometry x="310" y="30" width="220" height="40" as="geometry" />
        </mxCell>
      </root>
    </mxGraphModel>
  </diagram>
</mxfile>
